<?xml version="1.0" standalone="no"?><!DOCTYPE svg PUBLIC "-//W3C//DTD SVG 1.1//EN" "http://www.w3.org/Graphics/SVG/1.1/DTD/svg11.dtd"><svg t="1510054325230" class="icon" style="" viewBox="0 0 1024 1024" version="1.1" xmlns="http://www.w3.org/2000/svg" p-id="11245" xmlns:xlink="http://www.w3.org/1999/xlink" width="200" height="200"><defs><style type="text/css"></style></defs><path d="M949.5 225.7c-0.3 0.5-0.4 1-0.7 1.4L636 609.6l0.6 224.6c0.1 9.5-4.9 18.3-13.1 23L420.3 975.4c-4.1 2.4-8.6 3.6-13.2 3.6-4.5 0-9-1.2-13.1-3.5-8.1-4.7-13.2-13.4-13.2-22.8l0-340-308-385.9c-2.8-3.8-4.1-8.2-4.6-12.6-3.7-8.1-6.3-16.6-6.3-25.6C62 90 295.3 45.1 512 45.1c216.7 0 450 44.9 450 143.6C962 202 957.4 214.3 949.5 225.7zM426.6 588.2c3.4 4.5 5.2 10.1 5.2 15.7l0 303c0 0 103-58.9 139.9-80.1 17.3-9.9 13 0.1 13-30 0.1-55.8 0.2-195.9 0.2-195.9-0.1-5.9 1.8-11.7 5.5-16.4l235.4-289.6c-86.3 25.1-202.1 37.1-313.8 37.1-114 0-232.3-12.6-319.1-38.7L426.6 588.2zM512 97.3c-257.4 0-397.8 60.4-397.8 91.4 0 31 140.4 91.4 397.8 91.4 215.6 0 348.8-42.3 386.5-74.3l8.7-10.7c0.4-0.5 0.9-0.7 1.3-1.1 0.8-1.8 1.4-3.6 1.4-5.3C909.8 157.6 769.4 97.3 512 97.3z" p-id="11246"></path></svg>