<svg id="model" xmlns="http://www.w3.org/2000/svg" viewBox="0 0 100 100"><defs><style>.cls-1{fill:#3fa9f5;}</style></defs><title>ymate-catalog-model</title><g id="model-2" data-name="model"><rect class="cls-1" x="62.8" y="82.05" width="4.92" height="0.82"/><rect class="cls-1" x="38.19" y="82.05" width="4.92" height="4.92"/><rect class="cls-1" x="50.5" y="82.05" width="4.92" height="4.92"/><path class="cls-1" d="M88,0H12A12,12,0,0,0,0,12V88a12,12,0,0,0,12,12H88a12,12,0,0,0,12-12V12A12,12,0,0,0,88,0ZM33.27,87v3.28Q30,90.25,30,87V82.05H28.35V87q0,3.28-3.28,3.28v-8.2H23.43V87c0,2.19-1.1,3.28-3.28,3.28v-8.2q0-3.28,3.28-3.28H30q3.29,0,3.28,3.28ZM46.4,87c0,2.19-1.1,3.28-3.28,3.28H38.19c-2.18,0-3.28-1.09-3.28-3.28V82.05c0-2.19,1.1-3.28,3.28-3.28h4.93c2.18,0,3.28,1.09,3.28,3.28Zm12.3,0q0,3.28-3.28,3.28H50.5q-3.28,0-3.28-3.28V82.05q0-3.28,3.28-3.28h4.92V77.13q0-3.28,3.28-3.28ZM71,82.87q0,3.28-3.29,3.28H62.8V87H71q0,3.28-3.29,3.28H62.15c-1.75,0-2.63-1.09-2.63-3.28V82.05c0-2.19,1.1-3.28,3.28-3.28h4.92q3.28,0,3.29,3.28Zm4.1-5.74V87c0,2.19-1.1,3.28-3.28,3.28V77.13q0-3.28,3.28-3.28ZM76.4,53.8V65.05q-11.25,0-11.25-11.25V20.05H53.9V48.18q0,11.25-11.25,11.25V20.05H31.4V53.8q0,11.25-11.25,11.25v-45Q20.15,8.8,31.4,8.8H65.15q11.23,0,11.25,11.25Z"/></g></svg>