<?xml version="1.0" standalone="no"?><!DOCTYPE svg PUBLIC "-//W3C//DTD SVG 1.1//EN" "http://www.w3.org/Graphics/SVG/1.1/DTD/svg11.dtd"><svg t="1510157430829" class="icon" style="" viewBox="0 0 1024 1024" version="1.1" xmlns="http://www.w3.org/2000/svg" p-id="40200" xmlns:xlink="http://www.w3.org/1999/xlink" width="128" height="128"><defs><style type="text/css"></style></defs><path d="M875 36 149 36C83.3 36 30 89.3 30 155l0 714c0 65.7 53.3 119 119 119l726 0c65.7 0 119-53.3 119-119L994 155C994 89.3 940.7 36 875 36zM526.3 613.4c0 45.6-2.5 78.8-7.4 99.7-5 20.8-15.2 40.3-30.9 58.4-15.6 18.1-34.5 31.1-56.5 39-22.1 7.9-46.7 11.9-74 11.9-35.9 0-65.8-4.2-89.6-12.5-23.8-8.3-42.8-21.3-56.9-38.9-14.1-17.6-24.2-36.1-30.1-55.6-5.9-19.5-8.9-50.4-8.9-92.8L172 412.6c0-55.3 4.8-96.7 14.3-124.2 9.5-27.5 28.5-49.6 56.9-66.2 28.4-16.6 62.8-24.9 103.2-24.9 33 0 62.5 5.8 88.5 17.3 26 11.5 45.5 25.6 58.4 42.2 12.9 16.6 21.6 35.3 26.2 56.2 4.6 20.8 6.9 54 6.9 99.7L526.3 613.4 526.3 613.4zM827.1 810.9 676.9 810.9 676.9 488.1c0-46.6-1.1-74.6-3.3-84-2.2-9.4-8.4-16.5-18.4-21.4-10-4.8-32.4-7.3-67.1-7.3l-14.9 0 0-70.2c72.6-15.6 127.8-47.8 165.5-96.4l88.5 0L827.1 810.9zM349.7 289.9c-11.2 0-18.5 4.3-22.1 12.8-3.6 8.6-5.4 28.3-5.4 59.3l0 293.8c0 35 1.7 56 5 63.2 3.3 7.2 10.6 10.8 21.8 10.8 11.2 0 18.5-4.2 21.9-12.6 3.5-8.4 5.2-27.4 5.2-56.9l0-298.2c0-32-1.6-52-4.6-60.1C368.3 293.9 361.1 289.9 349.7 289.9z" p-id="40201" fill="#c3c929"></path></svg>