<?xml version="1.0" ?><svg enable-background="new 0 0 512 512" id="Layer_1" version="1.1" viewBox="0 0 512 512" xml:space="preserve" xmlns="http://www.w3.org/2000/svg" xmlns:xlink="http://www.w3.org/1999/xlink"><g><g><linearGradient gradientUnits="userSpaceOnUse" id="SVGID_1_" x1="-0.0000027" x2="512" y1="256" y2="256"><stop offset="0" style="stop-color:#A364AB"/><stop offset="1" style="stop-color:#8C3D96"/></linearGradient><circle cx="256" cy="256" fill="url(#SVGID_1_)" r="256"/><linearGradient gradientUnits="userSpaceOnUse" id="SVGID_2_" x1="42.6666641" x2="469.3333435" y1="256.0005188" y2="256.0005188"><stop offset="0" style="stop-color:#8C3D96"/><stop offset="1" style="stop-color:#A364AB"/></linearGradient><path d="M256,469.3338623c-117.6315155,0-213.3333435-95.7018738-213.3333435-213.3333435    S138.3684845,42.6671982,256,42.6671982c117.6356812,0,213.3333435,95.7018661,213.3333435,213.333313    S373.6356812,469.3338623,256,469.3338623z" fill="url(#SVGID_2_)"/></g><path d="M383.9994202,278.4917297v-28.9818573l-26.3045349-4.4810791   c-2.4773254-12.3055878-7.3322144-23.741333-14.0432129-33.8426666l15.4474792-21.79039l-20.4943848-20.4949341   l-21.7909546,15.447998c-10.1013184-6.7114716-21.5359802-11.5664063-33.8426514-14.0442657L278.4906616,144h-28.9829712   l-4.4794769,26.3045349c-12.3061218,2.4778595-23.7423859,7.3327942-33.8437195,14.0442657l-21.7909393-15.447998   l-20.493866,20.4949341l15.447998,21.79039c-6.7109375,10.1013336-11.5658722,21.5370789-14.0442657,33.8426666   l-26.3029327,4.4810791v28.9818573l26.3029327,4.480011c2.4783936,12.3061218,7.3333282,23.7429199,14.0442657,33.8426514   l-15.447998,21.7920227l20.493866,20.4933167l21.7925262-15.447998   c10.0997467,6.7120056,21.5360107,11.5664063,33.8421326,14.044281L249.5076904,384h28.9829712l4.4804993-26.3039856   c12.3066711-2.4778748,23.741333-7.3322754,33.8426514-14.044281l21.7909546,15.447998l20.4943848-20.4933167   l-15.4474792-21.7920227c6.7109985-10.0997314,11.5658875-21.5365295,14.0432129-33.8426514L383.9994202,278.4917297z    M264,313.1525269c-27.1466675,0-49.1531067-22.0053406-49.1531067-49.1525269   c0-27.1461334,22.0064392-49.1519928,49.1531067-49.1519928c27.1460876,0,49.1524963,22.0058594,49.1524963,49.1519928   C313.1524963,291.1471863,291.1460876,313.1525269,264,313.1525269z" opacity="0.3"/><path d="M375.9994202,270.4917297v-28.9818573l-26.3045349-4.4810791   c-2.4773254-12.3055878-7.3322144-23.741333-14.0432129-33.8426666l15.4474792-21.79039l-20.4943848-20.4949341   l-21.7909546,15.447998c-10.1013184-6.7114716-21.5359802-11.5664063-33.8426514-14.0442657L270.4906616,136h-28.9829712   l-4.4794617,26.3045349c-12.3061371,2.4778595-23.7424011,7.3327942-33.8437347,14.0442657l-21.7909393-15.447998   l-20.493866,20.4949341l15.447998,21.79039c-6.7109375,10.1013336-11.5658569,21.5370789-14.0442657,33.8426666   l-26.3029327,4.4810791v28.9818573l26.3029327,4.480011c2.4784088,12.3061218,7.3333282,23.7429199,14.0442657,33.8426514   l-15.447998,21.7920227l20.493866,20.4933167l21.7925262-15.447998   c10.0997467,6.7120056,21.5360107,11.5664063,33.8421478,14.044281L241.5076904,376h28.9829712l4.4804993-26.3039856   c12.3066711-2.4778748,23.741333-7.3322754,33.8426514-14.044281l21.7909546,15.447998l20.4943848-20.4933167   l-15.4474792-21.7920227c6.7109985-10.0997314,11.5658875-21.5365295,14.0432129-33.8426514L375.9994202,270.4917297z    M256,305.1525269c-27.1466675,0-49.1531067-22.0053406-49.1531067-49.1525269   c0-27.1461334,22.0064392-49.1520081,49.1531067-49.1520081c27.1460876,0,49.1524963,22.0058746,49.1524963,49.1520081   C305.1524963,283.1471863,283.1460876,305.1525269,256,305.1525269z" fill="#FFFFFF"/></g></svg>