<?xml version="1.0" standalone="no"?><!DOCTYPE svg PUBLIC "-//W3C//DTD SVG 1.1//EN" "http://www.w3.org/Graphics/SVG/1.1/DTD/svg11.dtd"><svg t="1510058017567" class="icon" style="" viewBox="0 0 1024 1024" version="1.1" xmlns="http://www.w3.org/2000/svg" p-id="29113" xmlns:xlink="http://www.w3.org/1999/xlink" width="128" height="128"><defs><style type="text/css"></style></defs><path d="M446.991 607.57h101.296l30.308-189.829h-102.093z" p-id="29114" fill="#d81e06"></path><path d="M511.996 1.394c-281.261 0-509.269 228.007-509.269 509.269s228.009 509.266 509.269 509.266 509.267-228.007 509.267-509.267-228.006-509.268-509.267-509.268zM721.366 417.741h-69.391l-29.513 189.829h78.962l-10.369 65.403h-78.962l-19.94 124.428h-74.176l19.939-124.427h-101.295l-19.939 124.427h-74.177l19.939-124.427h-69.391l10.37-65.403h69.391l30.309-189.829h-79.76l10.37-65.403h79.759l19.939-124.427h73.38l-19.939 124.427h102.093l19.939-124.427h73.38l-19.94 124.427h69.392l-10.369 65.403z" p-id="29115" fill="#d81e06"></path></svg>