<?xml version="1.0" standalone="no"?><!DOCTYPE svg PUBLIC "-//W3C//DTD SVG 1.1//EN" "http://www.w3.org/Graphics/SVG/1.1/DTD/svg11.dtd"><svg t="1510057751661" class="icon" style="" viewBox="0 0 1027 1024" version="1.1" xmlns="http://www.w3.org/2000/svg" p-id="26030" xmlns:xlink="http://www.w3.org/1999/xlink" width="128.375" height="128"><defs><style type="text/css"></style></defs><path d="M537.325268 566.646634H439.171122v180.723512h98.853463c76.725073 0 117.53522-25.225366 117.53522-94.957268-0.049951-60.540878-38.712195-85.766244-118.234537-85.766244zM625.788878 392.616585c0-58.842537-34.566244-79.022829-99.55278-79.022829H439.171122v160.54322h84.317658c66.385171 0 102.300098-26.873756 102.300098-81.520391z" fill="#1296db" p-id="26031"></path><path d="M512 18.731707C237.867707 18.731707 15.58478 240.964683 15.58478 515.146927s222.232976 496.41522 496.41522 496.415219 496.41522-222.232976 496.41522-496.415219S786.132293 18.731707 512 18.731707z m28.072585 824.49483H336.821073V218.586537h187.317073c120.981854 0 203.251512 37.813073 203.251513 155.498146 0 57.194146-26.22439 115.187512-76.025757 135.367805v3.346732c62.938537 15.98439 105.796683 64.73678 105.796683 147.106341 0 126.976-82.269659 183.320976-217.088 183.320976z" fill="#1296db" p-id="26032"></path></svg>