<?xml version="1.0" standalone="no"?><!DOCTYPE svg PUBLIC "-//W3C//DTD SVG 1.1//EN" "http://www.w3.org/Graphics/SVG/1.1/DTD/svg11.dtd"><svg t="1510143588267" class="icon" style="" viewBox="0 0 1024 1024" version="1.1" xmlns="http://www.w3.org/2000/svg" p-id="10996" xmlns:xlink="http://www.w3.org/1999/xlink" width="128" height="128"><defs><style type="text/css"></style></defs><path d="M702.976 392.704c-13.312-10.24-33.28-15.872-61.44-15.872h-93.184v130.56h93.184c28.16 0 48.64-5.12 61.952-15.872 12.8-10.24 19.456-27.136 19.456-50.176s-7.168-38.912-19.968-48.64zM297.984 389.632l-62.464 168.96h126.464l-61.952-168.96z" p-id="10997" fill="#707070"></path><path d="M512 0C229.376 0 0 229.376 0 512s229.376 512 512 512 512-229.376 512-512S794.624 0 512 0zM414.208 701.952L378.88 605.696H218.624l-34.816 96.256H122.88l143.872-373.248h65.024l143.872 373.248h-61.44z m230.912-145.408h-96.768v145.408H491.52V328.704h154.624c89.088 0 133.632 37.888 133.632 113.664 0 76.288-45.056 114.176-134.656 114.176z m224.768 145.408h-56.32V328.704h56.32v373.248z" p-id="10998" fill="#707070"></path></svg>