<svg id="图层_6" data-name="图层 6" xmlns="http://www.w3.org/2000/svg" viewBox="0 0 69.28 77.5"><defs><style>.cls-1{fill:#3793bb;}.cls-1,.cls-2{fill-rule:evenodd;}.cls-2{fill:#46a3cb;}.cls-3{fill:#69bde1;}</style></defs><title>ymate-vscode-extension</title><path id="P" class="cls-1" d="M154.33,152.5v35l4.33-2.5-.3-14.83L184.64,155V135Zm25.72-.34L158.66,165V155l21.65-12.5Z" transform="translate(-115.36 -110)"/><polygon id="M" class="cls-2" points="0 25 30.31 42.5 30.31 77.5 25.98 75 25.98 45 17.32 40 17.32 70 13.06 67.46 13.28 37.33 4.48 32.42 4.37 62.52 0 60 0 25"/><polyline id="Y" class="cls-3" points="34.64 0 64.95 17.5 34.64 35 30.31 32.5 56.29 17.5 47.63 12.5 21.65 27.5 4.33 17.5 8.66 15 21.65 22.5 43.3 10 30.31 2.5 34.64 0"/></svg>