<?xml version="1.0" standalone="no"?><!DOCTYPE svg PUBLIC "-//W3C//DTD SVG 1.1//EN" "http://www.w3.org/Graphics/SVG/1.1/DTD/svg11.dtd"><svg t="1510137353454" class="icon" style="" viewBox="0 0 1024 1024" version="1.1" xmlns="http://www.w3.org/2000/svg" p-id="9728" xmlns:xlink="http://www.w3.org/1999/xlink" width="128" height="128"><defs><style type="text/css"></style></defs><path d="M137.011077 624.926171c7.593271 25.295083 17.701812 49.498633 29.993419 72.325903L77.973398 802.039208l130.93646-42.237567c16.562822 20.217083 35.118877 38.773138 55.335959 55.335959l-42.237567 130.93646 104.739676-89.078556c22.82727 12.291607 47.078278 22.400148 72.325903 29.993419l11.105158 137.011077 62.69194-122.394031a394.66024 394.66024 0 0 0 78.305604 0l62.69194 122.394031 11.105158-137.011077a387.636465 387.636465 0 0 0 72.325903-29.993419l104.739676 89.078556-42.237567-130.93646c20.217083-16.562822 38.773138-35.118877 55.335959-55.335959l130.93646 42.237567-89.078556-104.739676c12.291607-22.82727 22.400148-47.078278 29.993419-72.325903l137.011077-11.105158-122.394031-62.69194a394.66024 394.66024 0 0 0 0-78.305604l122.394031-62.69194-137.011077-11.105158a387.636465 387.636465 0 0 0-29.993419-72.325903l89.078556-104.739676-130.93646 42.237567a395.989062 395.989062 0 0 0-55.335959-55.335959l42.237567-130.983918-104.739676 89.078556a390.294109 390.294109 0 0 0-72.325903-29.993419L613.868471 0l-62.69194 122.394031a394.66024 394.66024 0 0 0-78.305604 0L410.178987 0l-11.105158 137.011077a387.636465 387.636465 0 0 0-72.325903 29.993419L221.960792 77.92594l42.237567 130.93646c-20.217083 16.562822-38.773138 35.118877-55.335959 55.335959l-130.93646-42.237567 89.078556 104.739676a389.392409 389.392409 0 0 0-29.993419 72.373361L0 410.178987l122.394031 62.69194a394.66024 394.66024 0 0 0 0 78.305604L0 613.868471l137.011077 11.0577z m683.868934-264.720396a344.070075 344.070075 0 0 1-285.127311 495.033786v-302.164713a47.457941 47.457941 0 0 0 23.72897-41.098577v-0.854243l261.398341-150.916253z m-308.856282-192.252121a343.785327 343.785327 0 0 1 285.032396 151.248459l-262.015294 151.295917a46.983362 46.983362 0 0 0-45.939288 0L226.991333 319.202113a343.785327 343.785327 0 0 1 285.032396-151.248459zM203.119989 360.205775l261.398341 150.916253v0.854243a47.457941 47.457941 0 0 0 23.72897 41.098577v302.164713A344.070075 344.070075 0 0 1 203.119989 360.205775z" fill="#515151" p-id="9729"></path></svg>