<?xml version="1.0" ?><svg enable-background="new 0 0 512 512" id="Layer_1" version="1.1" viewBox="0 0 512 512" xml:space="preserve" xmlns="http://www.w3.org/2000/svg" xmlns:xlink="http://www.w3.org/1999/xlink"><g><g><linearGradient gradientUnits="userSpaceOnUse" id="SVGID_1_" x1="-0.0000027" x2="512" y1="256" y2="256"><stop offset="0" style="stop-color:#33B49D"/><stop offset="1" style="stop-color:#00A185"/></linearGradient><circle cx="256" cy="256" fill="url(#SVGID_1_)" r="256"/><linearGradient gradientUnits="userSpaceOnUse" id="SVGID_2_" x1="42.6666641" x2="469.3333435" y1="256.0005188" y2="256.0005188"><stop offset="0" style="stop-color:#00A185"/><stop offset="1" style="stop-color:#33B49D"/></linearGradient><path d="M256,469.3338623c-117.6315002,0-213.3333435-95.7023926-213.3333435-213.3333435    c0-117.6314545,95.7018356-213.333313,213.3333435-213.333313c117.6357117,0,213.3333435,95.7018661,213.3333435,213.333313    C469.3333435,373.6314697,373.6357117,469.3338623,256,469.3338623z" fill="url(#SVGID_2_)"/></g><polygon id="XMLID_81_" opacity="0.3" points="384,150.5546722 292.5519714,246.8975983 292.5599976,347.8992004    235.4400024,377.4447937 235.4474335,246.8975983 144,150.5546722  "/><polygon fill="#FFFFFF" id="XMLID_193_" points="376,142.5546722 284.5519714,238.8975983 284.5599976,339.8992004    227.4400024,369.4447937 227.4474335,238.8975983 136,142.5546722  "/></g></svg>