<?xml version="1.0" standalone="no"?><!DOCTYPE svg PUBLIC "-//W3C//DTD SVG 1.1//EN" "http://www.w3.org/Graphics/SVG/1.1/DTD/svg11.dtd"><svg t="1510157086327" class="icon" style="" viewBox="0 0 1024 1024" version="1.1" xmlns="http://www.w3.org/2000/svg" p-id="22514" xmlns:xlink="http://www.w3.org/1999/xlink" width="128" height="128"><defs><style type="text/css"></style></defs><path d="M877.714286 0H146.285714a146.285714 146.285714 0 0 0-146.285714 146.285714v731.428572a146.285714 146.285714 0 0 0 146.285714 146.285714h731.428572a146.285714 146.285714 0 0 0 146.285714-146.285714V146.285714a146.285714 146.285714 0 0 0-146.285714-146.285714zM724.114286 696.32a139.702857 139.702857 0 0 1-45.348572 54.125714 146.285714 146.285714 0 0 1-73.142857 24.868572H302.08V255.268571H512a605.622857 605.622857 0 0 1 92.891429 5.12 136.777143 136.777143 0 0 1 54.857142 21.942858 134.582857 134.582857 0 0 1 40.228572 43.885714 118.491429 118.491429 0 0 1 16.091428 61.44 124.342857 124.342857 0 0 1-73.142857 113.371428 137.508571 137.508571 0 0 1 73.142857 47.542858 125.805714 125.805714 0 0 1 25.6 78.994285 155.794286 155.794286 0 0 1-17.554285 68.754286zM554.422857 461.531429a73.142857 73.142857 0 0 0 42.422857-19.017143 55.588571 55.588571 0 0 0 15.36-40.96 57.782857 57.782857 0 0 0-13.165714-35.84 60.708571 60.708571 0 0 0-39.497143-18.285715H408.137143v116.297143h69.485714q61.44 0 76.8-2.194285zM585.142857 558.08a359.131429 359.131429 0 0 0-93.622857-7.314286H408.137143v139.702857h98.011428a478.354286 478.354286 0 0 0 73.142858 0 65.097143 65.097143 0 0 0 38.034285-21.211428 64.365714 64.365714 0 0 0 14.628572-44.617143 68.022857 68.022857 0 0 0-11.702857-39.497143 64.365714 64.365714 0 0 0-35.108572-27.062857z" p-id="22515" fill="#1296db"></path></svg>