<?xml version="1.0" standalone="no"?><!DOCTYPE svg PUBLIC "-//W3C//DTD SVG 1.1//EN" "http://www.w3.org/Graphics/SVG/1.1/DTD/svg11.dtd"><svg t="1510057378961" class="icon" style="" viewBox="0 0 1181 1024" version="1.1" xmlns="http://www.w3.org/2000/svg" p-id="21810" xmlns:xlink="http://www.w3.org/1999/xlink" width="147.625" height="128"><defs><style type="text/css"></style></defs><path d="M127.291077 1023.763692a54.350769 54.350769 0 0 1-55.138462-52.14523L180.302769 382.030769v-1.575384a54.350769 54.350769 0 0 1 55.138462-53.563077h890.486154c29.853538 0 54.272 23.236923 55.138461 52.14523l-107.913846 589.666462v1.575385a54.350769 54.350769 0 0 1-55.217231 53.484307H127.291077z" fill="#F5A623" p-id="21811"></path><path d="M180.381538 255.842462h864.019693v-83.495385c0-37.966769-29.144615-68.686769-65.220923-68.686769H490.180923L392.270769 0.787692H66.244923C30.247385 0.787692 1.024 31.507692 1.024 69.316923v823.296L107.756308 324.529231c0.078769-37.888 32.689231-68.765538 72.546461-68.765539" fill="#F5A623" p-id="21812"></path></svg>