<?xml version="1.0" ?><svg enable-background="new 0 0 512 512" id="Layer_1" version="1.1" viewBox="0 0 512 512" xml:space="preserve" xmlns="http://www.w3.org/2000/svg" xmlns:xlink="http://www.w3.org/1999/xlink"><g><g><linearGradient gradientUnits="userSpaceOnUse" id="SVGID_1_" x1="-0.0000027" x2="512" y1="256" y2="256"><stop offset="0" style="stop-color:#B49A85"/><stop offset="0.0650802" style="stop-color:#B0957F"/><stop offset="0.2856463" style="stop-color:#A88A71"/><stop offset="0.5538635" style="stop-color:#A38369"/><stop offset="1" style="stop-color:#A18166"/></linearGradient><circle cx="256" cy="256" fill="url(#SVGID_1_)" r="256"/><linearGradient gradientUnits="userSpaceOnUse" id="SVGID_2_" x1="42.6666641" x2="469.3333435" y1="256.0005188" y2="256.0005188"><stop offset="0" style="stop-color:#A18166"/><stop offset="0.4461364" style="stop-color:#A38369"/><stop offset="0.7143537" style="stop-color:#A88A71"/><stop offset="0.9349198" style="stop-color:#B0957F"/><stop offset="1" style="stop-color:#B49A85"/></linearGradient><path d="M256,469.3338623c-117.6314697,0-213.3333435-95.7023926-213.3333435-213.3333435    c0-117.6314545,95.7018661-213.333313,213.3333435-213.333313c117.6357422,0,213.3333435,95.7018661,213.3333435,213.333313    C469.3333435,373.6314697,373.6357422,469.3338623,256,469.3338623z" fill="url(#SVGID_2_)"/></g><path d="M341.1082764,298.0357361H307.802124v-68.0720062h33.3061523   c23.650116,0,42.8912048-19.2405243,42.8912048-42.8912048c0-23.6501312-19.2410889-42.8911896-42.8912048-42.8911896   c-23.6501465,0-42.8917542,19.2410583-42.8917542,42.8911896v33.3061371h-68.4341278V187.072525   c0-23.6501312-19.2415924-42.8911896-42.8911896-42.8911896C163.2410583,144.1813354,144,163.4223938,144,187.072525   c0,23.6506805,19.2410583,42.8912048,42.8912048,42.8912048h33.3055878v68.0720062h-33.3055878   C163.2410583,298.0357361,144,317.2767944,144,340.9269409c0,23.650116,19.2410583,42.8912048,42.8912048,42.8912048   c23.6495972,0,42.8911896-19.2410889,42.8911896-42.8912048v-33.305603h68.4341278v33.305603   c0,23.650116,19.2416077,42.8912048,42.8917542,42.8912048c23.650116,0,42.8912048-19.2410889,42.8912048-42.8912048   C383.9994812,317.2767944,364.7583923,298.0357361,341.1082764,298.0357361z M307.802124,187.072525   c0-18.36586,14.9402771-33.3055878,33.3061523-33.3055878c18.3658447,0,33.3061218,14.9397278,33.3061218,33.3055878   s-14.9402771,33.3061371-33.3061218,33.3061371H307.802124V187.072525z M186.8912048,220.3786621   c-18.3664093,0-33.305603-14.9402618-33.305603-33.3061371s14.9391937-33.3055878,33.305603-33.3055878   c18.36586,0,33.3055878,14.9397278,33.3055878,33.3055878v33.3061371H186.8912048z M220.1967926,340.9269409   c0,18.3658752-14.9397278,33.305603-33.3055878,33.305603c-18.3664093,0-33.305603-14.9397278-33.305603-33.305603   s14.9391937-33.305603,33.305603-33.305603h33.3055878V340.9269409z M229.7823944,298.0357361v-68.0720062h68.4341278v68.0720062   H229.7823944z M341.1082764,374.2325439c-18.3658752,0-33.3061523-14.9397278-33.3061523-33.305603v-33.305603h33.3061523   c18.3658447,0,33.3061218,14.9397278,33.3061218,33.305603S359.4741211,374.2325439,341.1082764,374.2325439z" opacity="0.3"/><path d="M333.1082764,290.0357361H299.802124v-68.0720062h33.3061523   c23.650116,0,42.8912048-19.2405243,42.8912048-42.8912048c0-23.6501312-19.2410889-42.8911896-42.8912048-42.8911896   c-23.6501465,0-42.8917542,19.2410583-42.8917542,42.8911896v33.3061371h-68.4341278V179.072525   c0-23.6501312-19.2415924-42.8911896-42.8911896-42.8911896C155.2410583,136.1813354,136,155.4223938,136,179.072525   c0,23.6506805,19.2410583,42.8912048,42.8912048,42.8912048h33.3055878v68.0720062h-33.3055878   C155.2410583,290.0357361,136,309.2767944,136,332.9269409c0,23.650116,19.2410583,42.8912048,42.8912048,42.8912048   c23.6495972,0,42.8911896-19.2410889,42.8911896-42.8912048v-33.305603h68.4341278v33.305603   c0,23.650116,19.2416077,42.8912048,42.8917542,42.8912048c23.650116,0,42.8912048-19.2410889,42.8912048-42.8912048   C375.9994812,309.2767944,356.7583923,290.0357361,333.1082764,290.0357361z M299.802124,179.072525   c0-18.36586,14.9402771-33.3055878,33.3061523-33.3055878c18.3658447,0,33.3061218,14.9397278,33.3061218,33.3055878   s-14.9402771,33.3061371-33.3061218,33.3061371H299.802124V179.072525z M178.8912048,212.3786621   c-18.3664093,0-33.305603-14.9402618-33.305603-33.3061371s14.9391937-33.3055878,33.305603-33.3055878   c18.36586,0,33.3055878,14.9397278,33.3055878,33.3055878v33.3061371H178.8912048z M212.1967926,332.9269409   c0,18.3658752-14.9397278,33.305603-33.3055878,33.305603c-18.3664093,0-33.305603-14.9397278-33.305603-33.305603   s14.9391937-33.305603,33.305603-33.305603h33.3055878V332.9269409z M221.7823944,290.0357361v-68.0720062h68.4341278v68.0720062   H221.7823944z M333.1082764,366.2325439c-18.3658752,0-33.3061523-14.9397278-33.3061523-33.305603v-33.305603h33.3061523   c18.3658447,0,33.3061218,14.9397278,33.3061218,33.305603S351.4741211,366.2325439,333.1082764,366.2325439z" fill="#FFFFFF"/></g></svg>