<?xml version="1.0" standalone="no"?><!DOCTYPE svg PUBLIC "-//W3C//DTD SVG 1.1//EN" "http://www.w3.org/Graphics/SVG/1.1/DTD/svg11.dtd"><svg t="1510158570063" class="icon" style="" viewBox="0 0 1024 1024" version="1.1" xmlns="http://www.w3.org/2000/svg" p-id="1228" xmlns:xlink="http://www.w3.org/1999/xlink" width="256" height="256"><defs><style type="text/css"></style></defs><path d="M786.766 330H238.987c-7.651 0-14.987 5.018-14.987 10.836V911.1c0 5.818 7.336 10.9 14.987 10.9h547.779c7.354 0 13.234-4.563 13.234-10.9V340.836c0-6.337-5.88-10.836-13.234-10.836zM422 840.952c0 22.523-17.977 40.847-40.5 40.847S341 863.475 341 840.952V451.401c0-22.523 17.977-40.847 40.5-40.847s40.5 18.324 40.5 40.847v389.551z m262 0c0 22.523-17.977 40.847-40.5 40.847S603 863.475 603 840.952V451.401c0-22.523 17.977-40.847 40.5-40.847s40.5 18.324 40.5 40.847v389.551z" fill="#8BF268" p-id="1229"></path><path d="M786.766 296H238.987C211.959 296 189 315.74 189 340.836V911.1c0 25.096 22.959 45.9 49.987 45.9h547.779C813.288 957 835 936.621 835 911.1V340.836C835 315.315 813.288 296 786.766 296zM800 911.1c0 6.337-5.88 10.9-13.234 10.9H238.987c-7.651 0-14.987-5.082-14.987-10.9V340.836c0-5.818 7.336-10.836 14.987-10.836h547.779c7.354 0 13.234 4.499 13.234 10.836V911.1z" fill="" p-id="1230"></path><path d="M909.307 171H586v-58.844C586 104.441 580.546 99 573.072 99H452.681C444.99 99 439 104.698 439 112.156V171H115.586c-7.692 0-13.586 5.933-13.586 13.391v3.44c0 7.458 5.895 13.169 13.586 13.169h793.721c7.474 0 13.693-5.454 13.693-13.169v-3.44c0-7.715-6.219-13.391-13.693-13.391z" fill="#8BF268" p-id="1231"></path><path d="M943.244 150.34c-8.996-9.172-21.038-14.34-33.937-14.34H621v-23.844c0-12.827-4.992-24.879-13.873-33.933C598.131 69.051 585.972 64 573.072 64H452.681C425.89 64 404 85.603 404 112.156V136H115.586C88.796 136 67 157.838 67 184.391v3.44C67 214.384 88.796 236 115.586 236h793.721c12.899 0 24.942-5.058 33.937-14.229 8.881-9.055 13.756-21.113 13.756-33.94v-3.44c0-12.827-4.875-24.996-13.756-34.051zM923 187.831c0 7.715-6.219 13.169-13.693 13.169H115.586c-7.692 0-13.586-5.711-13.586-13.169v-3.44c0-7.458 5.895-13.391 13.586-13.391H439v-58.844C439 104.698 444.99 99 452.681 99h120.391c7.474 0 12.928 5.441 12.928 13.156V171h323.307c7.474 0 13.693 5.676 13.693 13.391v3.44z" fill="" p-id="1232"></path><path d="M382.5 444.952c-3.556 0-6.5 2.893-6.5 6.449v389.551c0 3.557 2.944 6.45 6.5 6.45s6.5-2.893 6.5-6.45V451.401c0-3.556-2.944-6.449-6.5-6.449z" fill="#2FBC3C" p-id="1233"></path><path d="M381.5 410.554c-22.523 0-40.5 18.324-40.5 40.847v389.551c0 22.523 17.977 40.847 40.5 40.847s40.5-18.324 40.5-40.847V451.401c0-22.523-17.977-40.847-40.5-40.847z m7.5 430.398c0 3.557-2.944 6.45-6.5 6.45s-6.5-2.893-6.5-6.45V451.401c0-3.556 2.944-6.449 6.5-6.449s6.5 2.893 6.5 6.449v389.551z" fill="" p-id="1234"></path><path d="M642.5 444.952c-3.556 0-6.5 2.893-6.5 6.449v389.551c0 3.557 2.944 6.45 6.5 6.45s6.5-2.893 6.5-6.45V451.401c0-3.556-2.944-6.449-6.5-6.449z" fill="#2FBC3C" p-id="1235"></path><path d="M643.5 410.554c-22.523 0-40.5 18.324-40.5 40.847v389.551c0 22.523 17.977 40.847 40.5 40.847s40.5-18.324 40.5-40.847V451.401c0-22.523-17.977-40.847-40.5-40.847z m5.5 430.398c0 3.557-2.944 6.45-6.5 6.45s-6.5-2.893-6.5-6.45V451.401c0-3.556 2.944-6.449 6.5-6.449s6.5 2.893 6.5 6.449v389.551z" fill="" p-id="1236"></path></svg>