<?xml version="1.0" ?><svg enable-background="new 0 0 512 512" id="Layer_1" version="1.1" viewBox="0 0 512 512" xml:space="preserve" xmlns="http://www.w3.org/2000/svg" xmlns:xlink="http://www.w3.org/1999/xlink"><g><g><linearGradient gradientUnits="userSpaceOnUse" id="SVGID_1_" x1="-0.0000027" x2="512" y1="256" y2="256"><stop offset="0" style="stop-color:#95A5A6"/><stop offset="1" style="stop-color:#7F8C8D"/></linearGradient><circle cx="256" cy="256" fill="url(#SVGID_1_)" r="256"/><linearGradient gradientUnits="userSpaceOnUse" id="SVGID_2_" x1="42.6666641" x2="469.3333435" y1="256.0005188" y2="256.0005188"><stop offset="0" style="stop-color:#7F8C8D"/><stop offset="1" style="stop-color:#95A5A6"/></linearGradient><path d="M256,469.3338623c-117.631012,0-213.3333435-95.7018738-213.3333435-213.3333435    c0-117.6309204,95.7023239-213.333313,213.3333435-213.333313c117.6362,0,213.3333435,95.7024002,213.3333435,213.333313    C469.3333435,373.6319885,373.6362,469.3338623,256,469.3338623z" fill="url(#SVGID_2_)"/></g><path d="M166.0393982,299.4880066c19.5994568,0,35.4879913-15.8885498,35.4879913-35.4880066   s-15.8885345-35.4880066-35.4879913-35.4880066c-8.3280029,0-22.0393982,7.6789398-22.0393982,7.6789398v-63.4272003h182.4729919   v63.4282684c0,0,13.7109375-7.6800079,22.0390015-7.6800079C368.1113892,228.5119934,384,244.400528,384,264   s-15.8886108,35.4880066-35.4880066,35.4880066c-8.3253174,0-22.0390015-7.6874695-22.0390015-7.6874695v63.4362488H144   v-63.4282532C144,291.8085327,157.7135315,299.4880066,166.0393982,299.4880066z" id="XMLID_1_" opacity="0.3"/><path d="M158.0393982,291.4880066c19.5994568,0,35.4879913-15.8885498,35.4879913-35.4880066   s-15.8885345-35.4880066-35.4879913-35.4880066c-8.3280029,0-22.0393982,7.6789398-22.0393982,7.6789398v-63.4272003h182.4729919   v63.4282684c0,0,13.7109375-7.6800079,22.0390015-7.6800079C360.1113892,220.5119934,376,236.400528,376,256   s-15.8886108,35.4880066-35.4880066,35.4880066c-8.3253174,0-22.0390015-7.6874695-22.0390015-7.6874695v63.4362488H136   v-63.4282532C136,283.8085327,149.7135315,291.4880066,158.0393982,291.4880066z" fill="#FFFFFF" id="XMLID_1166_"/></g></svg>