<?xml version="1.0" standalone="no"?><!DOCTYPE svg PUBLIC "-//W3C//DTD SVG 1.1//EN" "http://www.w3.org/Graphics/SVG/1.1/DTD/svg11.dtd"><svg t="1510157651278" class="icon" style="" viewBox="0 0 1024 1024" version="1.1" xmlns="http://www.w3.org/2000/svg" p-id="9970" xmlns:xlink="http://www.w3.org/1999/xlink" width="128" height="128"><defs><style type="text/css"></style></defs><path d="M877.714286 0H146.285714a146.285714 146.285714 0 0 0-146.285714 146.285714v731.428572a146.285714 146.285714 0 0 0 146.285714 146.285714h731.428572a146.285714 146.285714 0 0 0 146.285714-146.285714V146.285714a146.285714 146.285714 0 0 0-146.285714-146.285714z m-182.857143 710.582857A149.942857 149.942857 0 0 1 625.371429 768a296.594286 296.594286 0 0 1-114.102858 19.017143 226.742857 226.742857 0 0 1-152.502857-44.617143 199.68 199.68 0 0 1-63.634285-133.851429l102.765714-9.874285a125.44 125.44 0 0 0 36.571428 76.068571 113.737143 113.737143 0 0 0 76.434286 24.137143 117.76 117.76 0 0 0 76.8-21.577143 64.365714 64.365714 0 0 0 25.965714-50.468571 47.542857 47.542857 0 0 0-10.971428-31.451429 87.04 87.04 0 0 0-36.571429-22.674286q-17.554286-6.582857-84.48-24.137142a287.085714 287.085714 0 0 1-119.222857-51.931429 136.411429 136.411429 0 0 1-48.274286-105.325714 134.582857 134.582857 0 0 1 22.674286-73.142857A141.897143 141.897143 0 0 1 402.285714 264.411429a261.851429 261.851429 0 0 1 103.131429-18.285715 219.428571 219.428571 0 0 1 148.48 43.154286 152.502857 152.502857 0 0 1 52.297143 115.2l-105.691429 4.754286a89.965714 89.965714 0 0 0-29.257143-58.148572 106.422857 106.422857 0 0 0-66.925714-17.554285 120.685714 120.685714 0 0 0-73.142857 19.017142 36.571429 36.571429 0 0 0-16.822857 32.548572 40.228571 40.228571 0 0 0 15.725714 31.817143 277.942857 277.942857 0 0 0 97.28 36.571428 512 512 0 0 1 114.102857 36.571429 146.285714 146.285714 0 0 1 57.782857 53.028571 164.937143 164.937143 0 0 1-4.388571 167.497143z" p-id="9971" fill="#d81e06"></path></svg>