<?xml version="1.0" standalone="no"?><!DOCTYPE svg PUBLIC "-//W3C//DTD SVG 1.1//EN" "http://www.w3.org/Graphics/SVG/1.1/DTD/svg11.dtd"><svg t="1510158645895" class="icon" style="" viewBox="0 0 1024 1024" version="1.1" xmlns="http://www.w3.org/2000/svg" p-id="1364" xmlns:xlink="http://www.w3.org/1999/xlink" width="256" height="256"><defs><style type="text/css"></style></defs><path d="M926 598.813V412.304c0-7.032-6.583-13.304-14.284-13.304H759v212h152.716c7.971 0 14.284-5.508 14.284-12.187z" fill="#FF9702" p-id="1365"></path><path d="M946.382 378.028c-9.437-9.11-21.594-14.028-34.665-14.028H744.855L306.484 61.722l-1.995 886.847L741.352 646h170.365C939.153 646 961 624.958 961 598.813V412.304c0-12.731-5.177-25.161-14.618-34.276zM340 129.915l2-1.129v-0.054l-0.144 0.026 0.721-0.609 35.875 25.948L724 392.344v222.919l-384.151 265.89 0.151-83.516V129.915zM759 399h152.716c7.7 0 14.284 6.273 14.284 13.304v186.509c0 6.679-6.313 12.187-14.284 12.187H759V399z" fill="" p-id="1366"></path><path d="M724 615.264v-222.92L378.406 154.098l3.194 2.295 0.823 695.185L340 880.998v-83.361l-0.151 83.517zM341.638 128.732v0.054l0.037-0.028z" fill="#F9F455" p-id="1367"></path><path d="M167.053 758.301l101.453-167.462-205.11 122.859zM63 297.448l206.376 120.72L166.188 251.77z" fill="" p-id="1368"></path><path d="M382.431 851.578l-0.85-695.185-3.162-2.295-35.941-25.948-0.807 0.608-0.102 0.028-1.569 1.129v751.083z" fill="#FFFFFF" p-id="1369"></path></svg>