<?xml version="1.0" ?><svg enable-background="new 0 0 512 512" id="Layer_1" version="1.1" viewBox="0 0 512 512" xml:space="preserve" xmlns="http://www.w3.org/2000/svg" xmlns:xlink="http://www.w3.org/1999/xlink"><g><g><linearGradient gradientUnits="userSpaceOnUse" id="SVGID_1_" x1="0.0000083" x2="512" y1="256" y2="256"><stop offset="0" style="stop-color:#F67950"/><stop offset="1" style="stop-color:#F15A29"/></linearGradient><circle cx="256" cy="256" fill="url(#SVGID_1_)" r="256"/><linearGradient gradientUnits="userSpaceOnUse" id="SVGID_2_" x1="42.6666756" x2="469.333313" y1="256.0005188" y2="256.0005188"><stop offset="0" style="stop-color:#F15A29"/><stop offset="1" style="stop-color:#F67950"/></linearGradient><path d="M256,469.3338623c-117.6309204,0-213.3333282-95.7023926-213.3333282-213.3333435    c0-117.6314545,95.7024078-213.333313,213.3333282-213.333313c117.636261,0,213.333313,95.7018661,213.333313,213.333313    C469.333313,373.6314697,373.636261,469.3338623,256,469.3338623z" fill="url(#SVGID_2_)"/></g><path d="M144.0000153,159.5941315v174.1008148h89.1290436L264,368.4053345l30.8703918-34.7103882H384V159.5941315   H144.0000153z M198.05867,262.6192017c-11.2186737,0-20.3125458-9.0944061-20.3125458-20.3125305   c0-11.2186737,9.0938721-20.3125458,20.3125458-20.3125458c11.2181244,0,20.3125305,9.0938721,20.3125305,20.3125458   C218.3712006,253.5247955,209.2767944,262.6192017,198.05867,262.6192017z M264,262.6192017   c-11.2181396,0-20.3125305-9.0944061-20.3125305-20.3125305c0-11.2186737,9.0943909-20.3125458,20.3125305-20.3125458   s20.3125305,9.0938721,20.3125305,20.3125458C284.3125305,253.5247955,275.2181396,262.6192017,264,262.6192017z    M329.941864,262.6192017c-11.2186584,0-20.3125305-9.0944061-20.3125305-20.3125305   c0-11.2186737,9.0938721-20.3125458,20.3125305-20.3125458c11.2175903,0,20.3125305,9.0938721,20.3125305,20.3125458   C350.2543945,253.5247955,341.1594543,262.6192017,329.941864,262.6192017z" opacity="0.3"/><path d="M136.0000153,151.5941315v174.1008148h89.1290436L256,360.4053345l30.8703918-34.7103882H376V151.5941315   H136.0000153z M190.05867,254.6192017c-11.2186737,0-20.3125305-9.0944061-20.3125305-20.3125305   c0-11.2186737,9.0938568-20.3125458,20.3125305-20.3125458c11.2181244,0,20.3125305,9.0938721,20.3125305,20.3125458   C210.3712006,245.5247955,201.2767944,254.6192017,190.05867,254.6192017z M256,254.6192017   c-11.2181396,0-20.3125305-9.0944061-20.3125305-20.3125305c0-11.2186737,9.0943909-20.3125458,20.3125305-20.3125458   s20.3125305,9.0938721,20.3125305,20.3125458C276.3125305,245.5247955,267.2181396,254.6192017,256,254.6192017z    M321.941864,254.6192017c-11.2186584,0-20.3125305-9.0944061-20.3125305-20.3125305   c0-11.2186737,9.0938721-20.3125458,20.3125305-20.3125458c11.2175903,0,20.3125305,9.0938721,20.3125305,20.3125458   C342.2543945,245.5247955,333.1594543,254.6192017,321.941864,254.6192017z" fill="#FFFFFF"/></g></svg>