<?xml version="1.0" standalone="no"?><!DOCTYPE svg PUBLIC "-//W3C//DTD SVG 1.1//EN" "http://www.w3.org/Graphics/SVG/1.1/DTD/svg11.dtd"><svg t="1510156787592" class="icon" style="" viewBox="0 0 1024 1024" version="1.1" xmlns="http://www.w3.org/2000/svg" p-id="1413" xmlns:xlink="http://www.w3.org/1999/xlink" width="128" height="128"><defs><style type="text/css"></style></defs><path d="M782.260795 60.96756 244.55125 60.96756c-98.985432 0-179.235151 80.249719-179.235151 179.23822l0 537.716708c0 98.984409 80.249719 179.227987 179.235151 179.227987l537.709545 0c98.984409 0 179.234127-80.243579 179.234127-179.227987l0-537.716708C961.495946 141.221372 881.246227 60.96756 782.260795 60.96756zM718.587614 778.832208 308.225455 778.832208 308.225455 239.287875l400.057465 0L708.28292 330.561671 417.164586 330.561671l0 119.612215 270.876314 0 0 90.905406L417.164586 541.079292l0 146.846486 301.423027 0L718.587614 778.832208z" p-id="1414" fill="#36ab60"></path></svg>