<?xml version="1.0" standalone="no"?><!DOCTYPE svg PUBLIC "-//W3C//DTD SVG 1.1//EN" "http://www.w3.org/Graphics/SVG/1.1/DTD/svg11.dtd"><svg t="1510054273162" class="icon" style="" viewBox="0 0 1024 1024" version="1.1" xmlns="http://www.w3.org/2000/svg" p-id="8923" xmlns:xlink="http://www.w3.org/1999/xlink" width="200" height="200"><defs><style type="text/css"></style></defs><path d="M110.795 251.846c0 24.023 19.474 43.497 43.497 43.497s43.497-19.474 43.497-43.497c0-24.023-19.474-43.497-43.497-43.497-24.023 0-43.497 19.474-43.497 43.497z" p-id="8924" fill="#ffffff"></path><path d="M314.608 251.846h571.668z" p-id="8925" fill="#ffffff"></path><path d="M886.276 282.915h-571.668c-17.398 0-31.069-13.67-31.069-31.069s13.67-31.069 31.069-31.069h571.668c17.398 0 31.069 13.67 31.069 31.069s-13.67 31.069-31.069 31.069z" p-id="8926" fill="#ffffff"></path><path d="M110.795 495.426c0 24.023 19.474 43.497 43.497 43.497s43.497-19.474 43.497-43.497c0-24.023-19.474-43.497-43.497-43.497-24.023 0-43.497 19.474-43.497 43.497z" p-id="8927" fill="#ffffff"></path><path d="M314.608 495.426h571.668z" p-id="8928" fill="#ffffff"></path><path d="M886.276 526.495h-571.668c-17.398 0-31.069-13.67-31.069-31.069s13.67-31.069 31.069-31.069h571.668c17.398 0 31.069 13.67 31.069 31.069s-13.67 31.069-31.069 31.069z" p-id="8929" fill="#ffffff"></path><path d="M110.795 762.618c0 24.023 19.474 43.497 43.497 43.497s43.497-19.474 43.497-43.497c0-24.023-19.474-43.497-43.497-43.497-24.023 0-43.497 19.474-43.497 43.497z" p-id="8930" fill="#ffffff"></path><path d="M314.608 762.618h571.668z" p-id="8931" fill="#ffffff"></path><path d="M886.276 793.687h-571.668c-17.398 0-31.069-13.67-31.069-31.069s13.67-31.069 31.069-31.069h571.668c17.398 0 31.069 13.67 31.069 31.069s-13.67 31.069-31.069 31.069z" p-id="8932" fill="#ffffff"></path></svg>